<svg id="Capa_1" enable-background="new 0 0 512 512" height="512" viewBox="0 0 512 512" width="512" xmlns="http://www.w3.org/2000/svg"><g><path d="m351.602 223.122c0-52.715-42.887-95.602-95.602-95.602l-20.016 115.618z" fill="#ffde55"/><path d="m160.398 223.122 95.602 20.016v-115.618c-52.715 0-95.602 42.887-95.602 95.602z" fill="#fff68e"/><path d="m436.675 223.122 17.646 144.439 57.679 144.439v-288.878z" fill="#009986"/><path d="m376.45 223.122 5.092 144.439 45.125 144.439h85.333l-75.325-288.878z" fill="#00cc76"/><path d="m316.225 223.122-7.462 144.439 32.57 144.439h85.334l-50.217-288.878z" fill="#009986"/><path d="m256 223.122-20.016 144.439 20.016 144.439h85.333l-25.108-288.878z" fill="#00cc76"/><path d="m195.775 223.122-32.57 144.439 7.462 144.439h85.333v-288.878z" fill="#a5e887"/><path d="m135.55 223.122-45.124 144.439-5.093 144.439h85.334l25.108-288.878z" fill="#00cc76"/><path d="m75.325 223.122-57.678 144.439-17.647 144.439h85.333l50.217-288.878z" fill="#a5e887"/><path d="m0 223.122v288.878l75.325-288.878z" fill="#00cc76"/><path d="m415.135 65.917c-42.507-42.507-99.022-65.917-159.135-65.917l-10.008 14.667 10.008 15.333c52.1 0 101.081 20.289 137.922 57.13z" fill="#ffde55"/><path d="m351.407 129.636 21.213-21.214c-31.196-31.194-72.612-48.374-116.62-48.374l-10.008 15.286 10.008 14.714c35.995 0 69.877 14.059 95.407 39.588z" fill="#ffb655"/><path d="m160.59 129.638c25.53-25.53 59.414-39.59 95.41-39.59v-30c-44.009 0-85.426 17.181-116.623 48.377z" fill="#ffde55"/><path d="m96.867 65.915 21.213 21.213c36.84-36.839 85.821-57.128 137.92-57.128v-30c-60.113 0-116.627 23.409-159.133 65.915z" fill="#fff68e"/></g></svg>