<?xml version="1.0" encoding="iso-8859-1"?>
<!-- Generator: Adobe Illustrator 21.0.0, SVG Export Plug-In . SVG Version: 6.00 Build 0)  -->
<svg xmlns="http://www.w3.org/2000/svg" xmlns:xlink="http://www.w3.org/1999/xlink" version="1.1" id="Capa_1" x="0px" y="0px" viewBox="0 0 512 512" style="enable-background:new 0 0 512 512;" xml:space="preserve" width="512" height="512">
<g>
	<path style="fill:#FF3C63;" d="M473.859,379.178C491.201,345.566,501,307.429,501,267c0-135.31-109.69-245-245-245   S11,131.69,11,267c0,40.428,9.799,78.566,27.141,112.178H473.859z"/>
	<path style="fill:#FFCB37;" d="M474.872,323.921c-4.898,0-72.862,0-153.851,0v161.913h45.234   c46.811-23.631,85.002-61.836,108.618-108.656V323.921z"/>
	<path style="fill:#F6A221;" d="M380.07,341.49c0-8.163,5.276-15.081,12.599-17.569c-21.5,0-45.912,0-71.647,0v161.913h45.234   c11.075-5.591,21.661-12.007,31.692-19.151V360.022C388.015,359.656,380.07,351.511,380.07,341.49z"/>
	<path style="fill:#474979;" d="M490.619,312.567l-39.916-53.607c-2.917-3.917-7.513-6.225-12.396-6.225h-146.85l44.551,59.832   c3.771,5.064,0.156,12.262-6.158,12.262h154.611C490.775,324.83,494.39,317.632,490.619,312.567z"/>
	<path style="fill:#383C6B;" d="M399.254,312.567l-18.122-24.338c-10.915-14.659-0.453-35.494,17.824-35.494H291.457l44.551,59.832   c3.771,5.065,0.156,12.263-6.158,12.263h63.246C399.411,324.829,403.025,317.632,399.254,312.567z"/>
	<path style="fill:#F9D987;" d="M65.203,102.603c0,20.172,0,62.241,0,152.145c66.211,0,160.915,0,227.126,0   c0-89.988,0-132.021,0-152.145L178.766,35.597L65.203,102.603z"/>
	<path style="fill:#FFCB37;" d="M178.766,35.597L65.203,102.603v152.145h40.026V133.793c0-7.347,3.883-14.147,10.211-17.881   l99.722-58.84L178.766,35.597z"/>
	<path style="fill:#64679C;" d="M51.27,112.637l127.496-75.228l127.496,75.228c9.057,5.344,20.49-1.185,20.49-11.701l0,0   c0-4.808-2.541-9.258-6.682-11.701L185.67,9.933c-4.259-2.514-9.549-2.514-13.808,0L37.462,89.235   c-4.141,2.443-6.682,6.893-6.682,11.701l0,0C30.78,111.452,42.213,117.981,51.27,112.637z"/>
	<path style="fill:#F9D987;" d="M37.128,377.178c23.615,46.821,61.806,85.025,108.618,108.656h176.529V323.921   c-123.372,0-277.674,0-285.147,0V377.178z"/>
	<path style="fill:#FFCB37;" d="M76.579,433.804V323.921c-22.656,0-37.277,0-39.451,0v53.257   C47.589,397.918,60.915,416.963,76.579,433.804z"/>
	<path style="fill:#84260D;" d="M179.701,130.762h-39.24c-3.301,0-5.977,2.676-5.977,5.977v19.602h45.217V130.762z"/>
	<rect x="134.484" y="156.342" style="fill:#A0391E;" width="45.217" height="46.964"/>
	<path style="fill:#A0391E;" d="M218.941,130.762h-39.24v25.579h45.217V136.74C224.918,133.438,222.242,130.762,218.941,130.762z"/>
	<rect x="179.701" y="156.342" style="fill:#BC4C2E;" width="45.217" height="46.964"/>
	<path style="fill:#84260D;" d="M117.072,359.675h-39.24c-3.301,0-5.977,2.676-5.977,5.977v19.602h45.217V359.675z"/>
	<path style="fill:#A0391E;" d="M71.854,428.586c8.409,9.576,17.551,18.491,27.342,26.656h17.876v-69.987H71.854V428.586z"/>
	<path style="fill:#A0391E;" d="M156.312,359.675h-39.24v25.579h45.217v-19.602C162.289,362.351,159.613,359.675,156.312,359.675z"/>
	<path style="fill:#BC4C2E;" d="M162.289,385.255h-45.217v69.987h39.24c3.301,0,5.977-2.676,5.977-5.977V385.255z"/>
	<path style="fill:#A0391E;" d="M283.118,359.675h-83.894c-2.447,0-4.43,1.983-4.43,4.43v21.297h92.754v-21.297   C287.548,361.659,285.564,359.675,283.118,359.675z"/>
	<path style="fill:#84260D;" d="M245.601,359.675h-46.377c-2.447,0-4.43,1.983-4.43,4.43v21.297h46.377v-21.297   C241.171,361.659,243.154,359.675,245.601,359.675z"/>
	<path style="fill:#BC4C2E;" d="M194.793,385.403v100.432c17.309,0,75.4,0,92.754,0V385.403   C270.219,385.403,212.186,385.403,194.793,385.403z"/>
	<path style="fill:#A0391E;" d="M194.793,385.403v100.432c8.657,0,27.516,0,46.377,0V385.403   C222.33,385.403,203.486,385.403,194.793,385.403z"/>
	<path style="fill:#64679C;" d="M354.96,454.294v31.54h11.294c17.145-8.655,33.129-19.267,47.669-31.54H354.96z"/>
	<path style="fill:#797EAF;" d="M441.893,422.755H354.96v31.54h58.963c10.045-8.479,19.403-17.744,27.969-27.713V422.755z"/>
	<rect x="354.96" y="391.215" style="fill:#64679C;" width="86.932" height="31.54"/>
	<path style="fill:#474979;" d="M398.426,454.294H354.96v31.54h11.294c11.255-5.682,21.997-12.222,32.172-19.507V454.294z"/>
	<rect x="354.96" y="422.755" style="fill:#64679C;" width="43.466" height="31.539"/>
	<rect x="354.96" y="391.215" style="fill:#474979;" width="43.466" height="31.54"/>
	<path style="fill:#797EAF;" d="M436.095,359.675h-75.337c-3.202,0-5.798,2.596-5.798,5.798v25.742h86.932v-25.742   C441.893,362.271,439.297,359.675,436.095,359.675z"/>
	<path style="fill:#64679C;" d="M404.224,359.675h-43.466c-3.202,0-5.798,2.596-5.798,5.798v25.742h43.466v-25.742   C398.426,362.271,401.022,359.675,404.224,359.675z"/>
	<path style="fill:#64679C;" d="M338.021,312.567l-44.551-59.832c-103.088,0-221.448,0-227.538,0l-44.551,59.832   c-3.771,5.064-0.156,12.262,6.158,12.262c7.939,0,174.509,0,304.324,0C338.177,324.83,341.792,317.632,338.021,312.567z"/>
	<path style="fill:#474979;" d="M72.077,312.567l44.55-59.832c-28.909,0-48.324,0-50.696,0l-44.551,59.832   c-3.771,5.065-0.156,12.263,6.158,12.263c2.563,0,21.654,0,50.696,0C71.921,324.829,68.306,317.632,72.077,312.567z"/>
	<g>
		<path style="fill:#8BCBEC;" d="M270.275,260.501H89.127c-4.169,0-7.548-3.379-7.548-7.548s3.379-7.548,7.548-7.548h181.148    c4.169,0,7.548,3.379,7.548,7.548S274.443,260.501,270.275,260.501z"/>
	</g>
	<path style="fill:#6CBCE7;" d="M149.579,252.954c0-4.168,3.379-7.548,7.548-7.548h-68c-4.169,0-7.548,3.379-7.548,7.548   c0,4.169,3.379,7.548,7.548,7.548h68C152.958,260.501,149.579,257.122,149.579,252.954z"/>
	<g>
		<path style="fill:#AADAF2;" d="M97.681,260.501c-4.169,0-7.548-3.379-7.548-7.548v-49.648c0-4.169,3.379-7.548,7.548-7.548    s7.548,3.379,7.548,7.548v49.648C105.229,257.122,101.85,260.501,97.681,260.501z"/>
	</g>
	<g>
		<path style="fill:#AADAF2;" d="M265.243,260.501c-4.169,0-7.548-3.379-7.548-7.548v-49.648c0-4.169,3.379-7.548,7.548-7.548    c4.169,0,7.548,3.379,7.548,7.548v49.648C272.79,257.122,269.412,260.501,265.243,260.501z"/>
	</g>
	<g>
		<path style="fill:#AADAF2;" d="M231.73,260.501c-4.169,0-7.548-3.379-7.548-7.548v-49.648c0-4.169,3.379-7.548,7.548-7.548    c4.169,0,7.548,3.379,7.548,7.548v49.648C239.278,257.122,235.899,260.501,231.73,260.501z"/>
	</g>
	<g>
		<path style="fill:#AADAF2;" d="M198.218,260.501c-4.169,0-7.548-3.379-7.548-7.548v-49.648c0-4.169,3.379-7.548,7.548-7.548    c4.169,0,7.548,3.379,7.548,7.548v49.648C205.766,257.122,202.387,260.501,198.218,260.501z"/>
	</g>
	<g>
		<path style="fill:#AADAF2;" d="M164.706,260.501c-4.169,0-7.548-3.379-7.548-7.548v-49.648c0-4.169,3.379-7.548,7.548-7.548    c4.169,0,7.548,3.379,7.548,7.548v49.648C172.254,257.122,168.875,260.501,164.706,260.501z"/>
	</g>
	<g>
		<path style="fill:#AADAF2;" d="M131.193,260.501c-4.169,0-7.548-3.379-7.548-7.548v-49.648c0-4.169,3.379-7.548,7.548-7.548    c4.169,0,7.548,3.379,7.548,7.548v49.648C138.741,257.122,135.362,260.501,131.193,260.501z"/>
	</g>
	<path style="fill:#8BCBEC;" d="M97.681,195.758c-4.169,0-7.548,3.379-7.548,7.548v30.333c0-4.169,3.379-7.548,7.548-7.548   s7.548,3.379,7.548,7.548v-30.333C105.229,199.138,101.85,195.758,97.681,195.758z"/>
	<path style="fill:#8BCBEC;" d="M265.243,195.758c-4.169,0-7.548,3.379-7.548,7.548v30.333c0-4.169,3.379-7.548,7.548-7.548   c4.169,0,7.548,3.379,7.548,7.548v-30.333C272.79,199.138,269.412,195.758,265.243,195.758z"/>
	<path style="fill:#8BCBEC;" d="M231.73,195.758c-4.169,0-7.548,3.379-7.548,7.548v30.333c0-4.169,3.379-7.548,7.548-7.548   c4.169,0,7.548,3.379,7.548,7.548v-30.333C239.278,199.138,235.899,195.758,231.73,195.758z"/>
	<path style="fill:#8BCBEC;" d="M198.218,195.758c-4.169,0-7.548,3.379-7.548,7.548v30.333c0-4.169,3.379-7.548,7.548-7.548   c4.169,0,7.548,3.379,7.548,7.548v-30.333C205.766,199.138,202.387,195.758,198.218,195.758z"/>
	<path style="fill:#8BCBEC;" d="M164.706,195.758c-4.169,0-7.548,3.379-7.548,7.548v30.333c0-4.169,3.379-7.548,7.548-7.548   c4.169,0,7.548,3.379,7.548,7.548v-30.333C172.254,199.138,168.875,195.758,164.706,195.758z"/>
	<path style="fill:#8BCBEC;" d="M131.193,195.758c-4.169,0-7.548,3.379-7.548,7.548v30.333c0-4.169,3.379-7.548,7.548-7.548   c4.169,0,7.548,3.379,7.548,7.548v-30.333C138.741,199.138,135.362,195.758,131.193,195.758z"/>
	<g>
		<path style="fill:#E8F8FC;" d="M270.275,210.854H89.127c-4.169,0-7.548-3.379-7.548-7.548s3.379-7.548,7.548-7.548h181.148    c4.169,0,7.548,3.379,7.548,7.548S274.443,210.854,270.275,210.854z"/>
	</g>
	<path style="fill:#AADAF2;" d="M149.579,203.306c0-4.169,3.379-7.548,7.548-7.548h-68c-4.169,0-7.548,3.379-7.548,7.548   c0,4.168,3.379,7.548,7.548,7.548h68C152.958,210.854,149.579,207.475,149.579,203.306z"/>
	<path style="fill:#87DA8F;" d="M143.763,484.828C177.39,502.189,215.548,512,256,512s78.61-9.811,112.237-27.172H143.763z"/>
	<g>
		<path style="fill:#44BC4D;" d="M239.887,484.828h-96.124c28.91,14.927,61.172,24.265,95.36,26.592    C227.178,507.055,227.725,488.6,239.887,484.828z"/>
	</g>
	<g>
		<path style="fill:#474979;" d="M227.598,34.672L185.67,9.933c-4.259-2.514-9.549-2.514-13.808,0L37.462,89.235    c-4.141,2.443-6.682,6.893-6.682,11.701c0,10.516,11.433,17.045,20.49,11.701l127.496-75.228l34.92,20.604    C206.632,47.628,214.837,33.405,227.598,34.672z"/>
	</g>
	<path style="fill:#797EAF;" d="M178.766,0c-7.504,0-13.586,6.082-13.586,13.586c0,12.867,0-9.933,0,34.773   c0,7.504,6.083,13.586,13.586,13.586c7.504,0,13.586-6.082,13.586-13.586c0-44.696,0-21.892,0-34.773   C192.352,6.082,186.27,0,178.766,0z"/>
	<path style="fill:#64679C;" d="M178.766,35.597c-7.504,0-13.586-6.083-13.586-13.586c0,3.61,0,11.001,0,26.348   c0,7.504,6.082,13.586,13.586,13.586c7.504,0,13.586-6.083,13.586-13.586c0-15.354,0-22.742,0-26.348   C192.352,29.514,186.27,35.597,178.766,35.597z"/>
</g>















</svg>
